<svg 
   xmlns:svg="http://www.w3.org/2000/svg"
   xmlns="http://www.w3.org/2000/svg"
   height="1567.24"
   width="1497.5333"   
   version="1.1">
<g xmlns="http://www.w3.org/2000/svg" id="g156">
<g clip-path="url(#clipPath162)" id="g158">
<g transform="translate(449.3442,651.7719)" id="g164"><path id="path166" style="fill:none;stroke:#58be96;stroke-width:3;stroke-linecap:round;stroke-linejoin:round;stroke-miterlimit:10;stroke-dasharray:none;stroke-opacity:1" d="m 0,0 -41.188,-3.97 c -1.631,-0.155 -3.177,0.31 -4.401,1.213 v 0.005 c -1.419,1.034 -2.407,2.66 -2.591,4.55 l -3.97,41.182 c -0.339,3.528 2.241,6.66 5.769,6.999 l 41.182,3.969 c 1.689,0.161 3.286,-0.344 4.532,-1.304 C 0.684,51.599 1.62,50.013 1.798,48.18 L 5.763,6.992 C 6.107,3.47 3.522,0.339 0,0 Z"/></g><g transform="translate(725.412,828.1909)" id="g168"><path id="path170" style="fill:#1194f6;fill-opacity:1;fill-rule:nonzero;stroke:none" d="m 0,0 -379.798,-36.591 5.029,-52.201 379.798,36.591 z"/></g><g transform="translate(665.913,666.2475)" id="g172"><path id="path174" style="fill:#fffffe;fill-opacity:1;fill-rule:nonzero;stroke:none" d="m 0,0 -105.798,-10.193 -1.991,20.67 105.798,10.192 z"/></g><g transform="translate(704.4697,708.2817)" id="g176"><path id="path178" style="fill:#fffffe;fill-opacity:1;fill-rule:nonzero;stroke:none" d="M 0,0 -148.003,-14.259 -149.995,6.41 -1.991,20.669 Z"/></g><g transform="translate(726.6337,817.4882)" id="g180"><path id="path182" style="fill:none;stroke:#fffffe;stroke-width:5;stroke-linecap:round;stroke-linejoin:round;stroke-miterlimit:10;stroke-dasharray:2, 200;stroke-dashoffset:0;stroke-opacity:1" d="m 0,0 v 0 l -4.658,48.346 c -0.863,8.949 -8.817,15.506 -17.766,14.643 L -370.001,29.503 c -8.95,-0.862 -15.506,-8.816 -14.644,-17.766 l 4.479,-46.489 15.928,-165.325 c 0.862,-8.949 8.816,-15.505 17.765,-14.643 l 347.578,33.487 c 8.95,0.862 15.506,8.816 14.644,17.765 z"/></g><g transform="translate(708.1201,656.7348)" id="g184"><path id="path186" style="fill:#fffffe;fill-opacity:1;fill-rule:nonzero;stroke:none" d="m 0,0 10.696,-38.662 7.696,15.143 18.099,2.469 z"/></g><g transform="translate(742.2851,617.1865)" id="g188"><path id="path190" style="fill:#fffffe;fill-opacity:1;fill-rule:nonzero;stroke:none" d="m 0,0 -4.765,-3.651 -14.605,19.058 4.765,3.651 z"/></g><g transform="translate(726.6337,817.4882)" id="g192"><path id="path194" style="fill:none;stroke:#fffffe;stroke-width:5;stroke-linecap:round;stroke-linejoin:round;stroke-miterlimit:10;stroke-dasharray:20, 200;stroke-dashoffset:0;stroke-opacity:1" d="m 0,0 v 0 l -4.658,48.346 c -0.863,8.949 -8.817,15.506 -17.766,14.643 L -370.001,29.503 c -8.95,-0.862 -15.506,-8.816 -14.644,-17.766 l 4.479,-46.489 15.928,-165.325 c 0.862,-8.949 8.816,-15.505 17.765,-14.643 l 347.578,33.487 c 8.95,0.862 15.506,8.816 14.644,17.765 z"/></g><g transform="translate(726.6337,817.4882)" id="g196"><path id="path198" style="fill:none;stroke:#fffffe;stroke-width:5;stroke-linecap:round;stroke-linejoin:round;stroke-miterlimit:10;stroke-dasharray:80, 100;stroke-dashoffset:0;stroke-opacity:1" d="m 0,0 v 0 l -4.658,48.346 c -0.863,8.949 -8.817,15.506 -17.766,14.643 L -370.001,29.503 c -8.95,-0.862 -15.506,-8.816 -14.644,-17.766 l 4.479,-46.489 15.928,-165.325 c 0.862,-8.949 8.816,-15.505 17.765,-14.643 l 347.578,33.487 c 8.95,0.862 15.506,8.816 14.644,17.765 z"/></g><g transform="translate(449.3442,651.7719)" id="g200"><path id="path202" style="fill:#58be96;fill-opacity:1;fill-rule:nonzero;stroke:none" d="m 0,0 -41.188,-3.97 c -1.631,-0.155 -3.177,0.31 -4.401,1.213 v 0.005 l 44.911,55.391 0.011,0.005 C 0.684,51.599 1.62,50.013 1.798,48.18 L 5.763,6.992 C 6.107,3.47 3.522,0.339 0,0"/></g><g transform="translate(398.4374,681.8559)" id="g204"><path id="path206" style="fill:none;stroke:#fffffe;stroke-width:4;stroke-linecap:round;stroke-linejoin:round;stroke-miterlimit:10;stroke-dasharray:none;stroke-opacity:1" d="m 0,0 27.713,3.076 3.296,-16.053 24.436,2.607"/></g><g transform="translate(-1e-4,645.0825)" id="g208"><path id="path210" style="fill:none;stroke:#1194f6;stroke-width:4;stroke-linecap:butt;stroke-linejoin:miter;stroke-miterlimit:10;stroke-dasharray:none;stroke-opacity:1" d="M 0,0 C 0,0 74.029,-16.88 63.023,-103.599"/></g><g transform="translate(861.3661,543.3261)" id="g212"><path id="path214" style="fill:none;stroke:#1194f6;stroke-width:4;stroke-linecap:butt;stroke-linejoin:miter;stroke-miterlimit:10;stroke-dasharray:none;stroke-opacity:1" d="m 0,0 c 0,0 17.569,136.206 127.039,148.833 109.47,12.628 134.78,199.531 134.78,199.531"/></g><g transform="translate(953.2148,1073.9701)" id="g216"><path id="path218" style="fill:none;stroke:#58be96;stroke-width:3;stroke-linecap:round;stroke-linejoin:round;stroke-miterlimit:10;stroke-dasharray:none;stroke-opacity:1" d="M 0,0 C 0,0 -23.656,-500.847 167.747,-480.057"/></g><g transform="translate(-1e-4,826.3559)" id="g220"><path id="path222" style="fill:none;stroke:#ffffff;stroke-width:4;stroke-linecap:butt;stroke-linejoin:miter;stroke-miterlimit:10;stroke-dasharray:none;stroke-opacity:1" d="M 0,0 C 0,0 158.338,0 174.92,-283.03"/></g><g transform="translate(1009.5634,543.3261)" id="g224"><path id="path226" style="fill:none;stroke:#ffffff;stroke-width:4;stroke-linecap:butt;stroke-linejoin:miter;stroke-miterlimit:10;stroke-dasharray:none;stroke-opacity:1" d="M 0,0 C 0,0 -66.287,381.151 111.398,481.809"/></g><g transform="translate(256.0136,596.2695)" id="g228"><path id="path230" style="fill:#fffffe;fill-opacity:1;fill-rule:nonzero;stroke:none" d="m 0,0 c 0,-3.676 -2.98,-6.656 -6.657,-6.656 -3.676,0 -6.656,2.98 -6.656,6.656 0,3.676 2.98,6.657 6.656,6.657 C -2.98,6.657 0,3.676 0,0"/></g><g transform="translate(837.8183,722.8647)" id="g232"><path id="path234" style="fill:#fffffe;fill-opacity:1;fill-rule:nonzero;stroke:none" d="m 0,0 c 0,-3.676 -2.98,-6.657 -6.656,-6.657 -3.677,0 -6.657,2.981 -6.657,6.657 0,3.676 2.98,6.656 6.657,6.656 C -2.98,6.656 0,3.676 0,0"/></g><g transform="translate(924.163,948.3749)" id="g236"><path id="path238" style="fill:#fffffe;fill-opacity:1;fill-rule:nonzero;stroke:none" d="m 0,0 c 0,-3.676 -2.98,-6.656 -6.656,-6.656 -3.676,0 -6.657,2.98 -6.657,6.656 0,3.676 2.981,6.656 6.657,6.656 C -2.98,6.656 0,3.676 0,0"/></g><g transform="translate(242.7006,790.9858)" id="g240"><path id="path242" style="fill:#1194f6;fill-opacity:1;fill-rule:nonzero;stroke:none" d="m 0,0 c 0,-3.676 -2.98,-6.656 -6.656,-6.656 -3.677,0 -6.657,2.98 -6.657,6.656 0,3.676 2.98,6.656 6.657,6.656 C -2.98,6.656 0,3.676 0,0"/></g><g transform="translate(1071.9579,721.1376)" id="g244"><path id="path246" style="fill:#1194f6;fill-opacity:1;fill-rule:nonzero;stroke:none" d="m 0,0 c 1.483,-3.363 -0.04,-7.292 -3.404,-8.776 -3.364,-1.484 -7.292,0.04 -8.777,3.403 -1.483,3.363 0.04,7.293 3.404,8.777 C -5.414,4.887 -1.484,3.364 0,0"/></g><g transform="translate(63.4311,653.7158)" id="g248"><path id="path250" style="fill:#1194f6;fill-opacity:1;fill-rule:nonzero;stroke:none" d="m 0,0 c 0,-3.676 -2.98,-6.656 -6.656,-6.656 -3.677,0 -6.657,2.98 -6.657,6.656 0,3.676 2.98,6.657 6.657,6.657 C -2.98,6.657 0,3.676 0,0"/></g><g transform="translate(805.6562,616.2299)" id="g252"><path id="path254" style="fill:#1194f6;fill-opacity:1;fill-rule:nonzero;stroke:none" d="m 0,0 c 0,-2.682 -2.174,-4.855 -4.855,-4.855 -2.682,0 -4.856,2.173 -4.856,4.855 0,2.682 2.174,4.856 4.856,4.856 C -2.174,4.856 0,2.682 0,0"/></g></g></g>
</svg>